<svg width="100" height="80" viewBox="0 0 100 80" fill="none" xmlns="http://www.w3.org/2000/svg">
<path fill-rule="evenodd" clip-rule="evenodd" d="M11 6L48.8 34.35C49.1462 34.6096 49.5673 34.75 50 34.75C50.4327 34.75 50.8538 34.6096 51.2 34.35L89 6H11ZM94 9.75L54.8 39.15C53.4152 40.1886 51.731 40.75 50 40.75C48.269 40.75 46.5848 40.1886 45.2 39.15L6 9.75V74H94V9.75ZM5 0H95C96.3261 0 97.5979 0.526785 98.5355 1.46447C99.4732 2.40215 100 3.67392 100 5V75C100 76.3261 99.4732 77.5979 98.5355 78.5355C97.5979 79.4732 96.3261 80 95 80H5C3.67392 80 2.40215 79.4732 1.46447 78.5355C0.526784 77.5979 0 76.3261 0 75V5C0 3.67392 0.526784 2.40215 1.46447 1.46447C2.40215 0.526785 3.67392 0 5 0Z" fill="black"/>
</svg>
