<svg width="55" height="55" viewBox="0 0 55 55" fill="none" xmlns="http://www.w3.org/2000/svg">
<path d="M27.5002 0C12.3142 0 0 12.6237 0 28.1963C0 40.6541 7.87961 51.2234 18.8063 54.9517C20.1807 55.2127 20.6854 54.34 20.6854 53.5952C20.6854 52.9229 20.6596 50.7018 20.648 48.3459C12.9974 50.0513 11.3831 45.019 11.3831 45.019C10.132 41.7599 8.32949 40.8931 8.32949 40.8931C5.83451 39.1432 8.5177 39.1793 8.5177 39.1793C11.2791 39.378 12.7331 42.0848 12.7331 42.0848C15.186 46.3953 19.1666 45.1492 20.7359 44.4286C20.9827 42.6064 21.6954 41.3623 22.4819 40.6583C16.3737 39.9454 9.95264 37.5276 9.95264 26.7237C9.95264 23.6453 11.0269 21.1299 12.786 19.1553C12.5005 18.4451 11.5592 15.5774 13.0524 11.6934C13.0524 11.6934 15.3618 10.9357 20.6171 14.5837C22.8106 13.959 25.1631 13.6458 27.5002 13.635C29.8373 13.6458 32.1918 13.9588 34.3894 14.5837C39.6382 10.9359 41.9444 11.6937 41.9444 11.6937C43.4412 15.5772 42.4995 18.4453 42.214 19.1553C43.9772 21.1299 45.0441 23.6453 45.0441 26.7237C45.0441 37.5534 38.6109 39.938 32.4872 40.636C33.4735 41.511 34.3524 43.227 34.3524 45.8576C34.3524 49.6301 34.3206 52.6665 34.3206 53.5952C34.3206 54.3457 34.8156 55.2248 36.2096 54.9477C47.1303 51.2155 55 40.6501 55 28.1965C55 12.6237 42.6875 0 27.5002 0ZM10.2998 40.1662C10.2392 40.3063 10.0242 40.3483 9.82846 40.2521C9.62887 40.1602 9.51693 39.9692 9.58139 39.8287C9.64068 39.6844 9.85617 39.6441 10.0551 39.7408C10.2549 39.8329 10.3688 40.0256 10.2998 40.1662ZM11.6525 41.4037C11.5214 41.5284 11.2649 41.4705 11.0909 41.2735C10.9111 41.077 10.8773 40.814 11.0103 40.6876C11.1457 40.5629 11.3942 40.6213 11.5745 40.8178C11.7545 41.0167 11.7893 41.2777 11.6525 41.4037ZM12.5806 42.9871C12.412 43.1071 12.1365 42.9946 11.9662 42.7439C11.7977 42.4932 11.7977 42.1925 11.9698 42.072C12.1406 41.9515 12.412 42.0599 12.5845 42.3088C12.7525 42.5637 12.7525 42.8644 12.5804 42.9873M14.1496 44.8212C13.999 44.9917 13.6778 44.9458 13.4428 44.7132C13.2024 44.4859 13.1355 44.1634 13.2868 43.9929C13.4393 43.822 13.7622 43.87 13.999 44.1008C14.2375 44.3277 14.3105 44.6526 14.1496 44.8212ZM16.1782 45.4401C16.1116 45.6611 15.8022 45.7615 15.4909 45.6677C15.1798 45.571 14.9763 45.3124 15.0391 45.0892C15.1037 44.8668 15.4144 44.7623 15.7281 44.8628C16.0387 44.9588 16.2428 45.2157 16.1782 45.4404M18.4864 45.7032C18.4942 45.9356 18.2301 46.1283 17.9031 46.1327C17.5744 46.1402 17.3082 45.9521 17.3046 45.723C17.3046 45.4884 17.5628 45.2974 17.8918 45.2917C18.2188 45.2851 18.4864 45.4719 18.4864 45.7032ZM20.7541 45.6139C20.7932 45.8408 20.5661 46.0739 20.2413 46.136C19.9222 46.1957 19.6266 46.0556 19.586 45.8307C19.5465 45.5981 19.7779 45.365 20.0965 45.3049C20.4218 45.247 20.7127 45.3833 20.7541 45.6139Z" fill="#302D2D"/>
</svg>
