<svg width="220" height="220" viewBox="0 0 220 220" fill="none" xmlns="http://www.w3.org/2000/svg">
<rect width="220" height="220" fill="#121212"/>
<path d="M27.2451 126.366C26.9359 126.334 26.6999 126.195 26.5371 125.951C26.3743 125.707 26.3092 125.438 26.3418 125.146C26.4232 124.641 26.5778 124.177 26.8057 123.754C27.0335 123.331 27.1963 123.013 27.2939 122.802C27.4079 122.59 27.5218 122.354 27.6357 122.094L28.5635 119.945L38.5977 89.8916L49.3887 110.741L59.8623 89.8916L72.3867 126H59.2764L53.2217 107.348L43.8467 126.879L33.9834 109.301L30.5654 119.97C30.0283 121.158 29.6458 122.167 29.418 122.997C29.1901 123.827 29.0029 124.47 28.8564 124.926C28.5309 125.951 27.9938 126.431 27.2451 126.366Z" fill="#FD9568"/>
<path d="M80.9072 121.605C79.2959 120.027 78.0101 118.122 77.0498 115.893C76.1058 113.646 75.6338 111.205 75.6338 108.568C75.6338 105.915 76.0814 103.539 76.9766 101.439C77.888 99.3236 79.1413 97.4925 80.7363 95.9463C84.1543 92.6585 88.443 91.0146 93.6025 91.0146C98.7295 91.0146 102.929 92.6341 106.2 95.873C109.521 99.1608 111.181 103.425 111.181 108.666C111.181 113.891 109.48 118.188 106.078 121.557C103.946 123.64 101.326 125.08 98.2168 125.878C96.6706 126.269 94.8721 126.464 92.8213 126.464C90.7868 126.464 88.6953 126.049 86.5469 125.219C84.3984 124.372 82.5186 123.168 80.9072 121.605ZM93.5781 92.7969C92.6829 92.7969 91.8447 92.862 91.0635 92.9922V124.486C91.8122 124.617 92.6504 124.682 93.5781 124.682C97.9238 124.682 101.586 123.233 104.564 120.336C107.673 117.325 109.228 113.435 109.228 108.666C109.228 104.125 107.771 100.349 104.857 97.3379C101.911 94.3105 98.1517 92.7969 93.5781 92.7969ZM142.797 91.1855C143.464 91.1855 143.798 91.5355 143.798 92.2354C143.798 92.5934 143.684 93.0085 143.456 93.4805C143.244 93.9362 143.074 94.3105 142.943 94.6035L129.687 127.343L113.622 91.4541H126.952L134.716 109.716L140.16 96.0928C140.746 94.6279 141.129 93.57 141.308 92.9189C141.487 92.2679 141.682 91.8203 141.894 91.5762C142.105 91.3158 142.406 91.1855 142.797 91.1855ZM148.51 91.4541H160.961V126H148.51V91.4541ZM190.6 123.9C191.43 123.9 191.845 124.226 191.845 124.877C191.845 125.17 191.666 125.43 191.308 125.658C190.95 125.886 190.331 126 189.452 126H168.773V91.4541C175.186 91.4541 181.599 91.4541 188.012 91.4541L190.014 91.3809C191.234 91.3809 191.845 91.7389 191.845 92.4551C191.845 92.7318 191.739 92.9922 191.527 93.2363C191.332 93.4642 191.104 93.5781 190.844 93.5781C190.421 93.5781 189.973 93.5293 189.501 93.4316C188.801 93.2852 187.841 93.2119 186.62 93.2119H181.225V100.658H185.668C185.668 100.658 186.669 100.618 188.671 100.536C189.029 100.536 189.33 100.626 189.574 100.805C189.835 100.967 189.965 101.203 189.965 101.513C189.965 102.196 189.509 102.538 188.598 102.538L187.548 102.514C187.011 102.465 186.563 102.44 186.205 102.44H181.225V124.218H186.62C187.825 124.218 188.679 124.169 189.184 124.071C189.786 123.957 190.258 123.9 190.6 123.9Z" fill="white"/>
</svg>
