<svg width="60" height="60" viewBox="0 0 60 60" fill="none" xmlns="http://www.w3.org/2000/svg">
<circle cx="30" cy="30" r="29.5" fill="white" stroke="#EEEEEE"/>
<path d="M5.56889 33V26.4545H8.15128C8.64773 26.4545 9.07067 26.5494 9.4201 26.739C9.76953 26.9265 10.0359 27.1875 10.2191 27.522C10.4045 27.8544 10.4972 28.2379 10.4972 28.6726C10.4972 29.1072 10.4034 29.4908 10.2159 29.8232C10.0284 30.1555 9.75675 30.4144 9.40092 30.5998C9.04723 30.7852 8.61896 30.8778 8.11612 30.8778H6.47017V29.7688H7.8924C8.15874 29.7688 8.3782 29.723 8.55078 29.6314C8.7255 29.5376 8.85547 29.4087 8.9407 29.2447C9.02805 29.0785 9.07173 28.8878 9.07173 28.6726C9.07173 28.4553 9.02805 28.2656 8.9407 28.1037C8.85547 27.9396 8.7255 27.8129 8.55078 27.7234C8.37607 27.6317 8.15447 27.5859 7.88601 27.5859H6.95277V33H5.56889ZM17.411 29.7273C17.411 30.4411 17.2757 31.0483 17.0051 31.549C16.7366 32.0497 16.3701 32.4322 15.9056 32.6964C15.4433 32.9585 14.9234 33.0895 14.346 33.0895C13.7643 33.0895 13.2423 32.9574 12.7799 32.6932C12.3176 32.429 11.9521 32.0465 11.6837 31.5458C11.4152 31.0451 11.281 30.4389 11.281 29.7273C11.281 29.0135 11.4152 28.4062 11.6837 27.9055C11.9521 27.4048 12.3176 27.0234 12.7799 26.7614C13.2423 26.4972 13.7643 26.3651 14.346 26.3651C14.9234 26.3651 15.4433 26.4972 15.9056 26.7614C16.3701 27.0234 16.7366 27.4048 17.0051 27.9055C17.2757 28.4062 17.411 29.0135 17.411 29.7273ZM16.0079 29.7273C16.0079 29.2649 15.9387 28.875 15.8002 28.5575C15.6638 28.2401 15.471 27.9993 15.2217 27.8352C14.9724 27.6712 14.6805 27.5891 14.346 27.5891C14.0115 27.5891 13.7195 27.6712 13.4703 27.8352C13.221 27.9993 13.0271 28.2401 12.8886 28.5575C12.7522 28.875 12.684 29.2649 12.684 29.7273C12.684 30.1896 12.7522 30.5795 12.8886 30.897C13.0271 31.2145 13.221 31.4553 13.4703 31.6193C13.7195 31.7834 14.0115 31.8654 14.346 31.8654C14.6805 31.8654 14.9724 31.7834 15.2217 31.6193C15.471 31.4553 15.6638 31.2145 15.8002 30.897C15.9387 30.5795 16.0079 30.1896 16.0079 29.7273ZM18.4361 33V26.4545H21.0185C21.5128 26.4545 21.9347 26.543 22.2841 26.7198C22.6357 26.8945 22.9031 27.1428 23.0863 27.4645C23.2717 27.7841 23.3643 28.1602 23.3643 28.5927C23.3643 29.0273 23.2706 29.4013 23.0831 29.7145C22.8956 30.0256 22.6239 30.2642 22.2681 30.4304C21.9144 30.5966 21.4862 30.6797 20.9833 30.6797H19.2543V29.5675H20.7596C21.0238 29.5675 21.2433 29.5312 21.418 29.4588C21.5927 29.3864 21.7227 29.2777 21.8079 29.1328C21.8952 28.9879 21.9389 28.8079 21.9389 28.5927C21.9389 28.3754 21.8952 28.1921 21.8079 28.043C21.7227 27.8938 21.5916 27.7809 21.4148 27.7042C21.2401 27.6254 21.0195 27.5859 20.7532 27.5859H19.82V33H18.4361ZM21.9709 30.0213L23.5977 33H22.07L20.4783 30.0213H21.9709ZM24.093 27.5955V26.4545H29.4688V27.5955H27.4648V33H26.0969V27.5955H24.093ZM30.354 33V26.4545H34.6879V27.5955H31.7379V29.1552H34.4002V30.2962H31.7379V33H30.354ZM41.6336 29.7273C41.6336 30.4411 41.4983 31.0483 41.2277 31.549C40.9593 32.0497 40.5928 32.4322 40.1283 32.6964C39.6659 32.9585 39.146 33.0895 38.5686 33.0895C37.9869 33.0895 37.4649 32.9574 37.0026 32.6932C36.5402 32.429 36.1748 32.0465 35.9063 31.5458C35.6379 31.0451 35.5036 30.4389 35.5036 29.7273C35.5036 29.0135 35.6379 28.4062 35.9063 27.9055C36.1748 27.4048 36.5402 27.0234 37.0026 26.7614C37.4649 26.4972 37.9869 26.3651 38.5686 26.3651C39.146 26.3651 39.6659 26.4972 40.1283 26.7614C40.5928 27.0234 40.9593 27.4048 41.2277 27.9055C41.4983 28.4062 41.6336 29.0135 41.6336 29.7273ZM40.2306 29.7273C40.2306 29.2649 40.1613 28.875 40.0228 28.5575C39.8865 28.2401 39.6936 27.9993 39.4443 27.8352C39.195 27.6712 38.9031 27.5891 38.5686 27.5891C38.2341 27.5891 37.9422 27.6712 37.6929 27.8352C37.4436 27.9993 37.2497 28.2401 37.1112 28.5575C36.9749 28.875 36.9067 29.2649 36.9067 29.7273C36.9067 30.1896 36.9749 30.5795 37.1112 30.897C37.2497 31.2145 37.4436 31.4553 37.6929 31.6193C37.9422 31.7834 38.2341 31.8654 38.5686 31.8654C38.9031 31.8654 39.195 31.7834 39.4443 31.6193C39.6936 31.4553 39.8865 31.2145 40.0228 30.897C40.1613 30.5795 40.2306 30.1896 40.2306 29.7273ZM42.6587 33V26.4545H44.0426V31.859H46.8487V33H42.6587ZM49.1491 26.4545V33H47.7652V26.4545H49.1491ZM56.3026 29.7273C56.3026 30.4411 56.1673 31.0483 55.8967 31.549C55.6282 32.0497 55.2617 32.4322 54.7972 32.6964C54.3349 32.9585 53.815 33.0895 53.2376 33.0895C52.6559 33.0895 52.1339 32.9574 51.6715 32.6932C51.2092 32.429 50.8438 32.0465 50.5753 31.5458C50.3068 31.0451 50.1726 30.4389 50.1726 29.7273C50.1726 29.0135 50.3068 28.4062 50.5753 27.9055C50.8438 27.4048 51.2092 27.0234 51.6715 26.7614C52.1339 26.4972 52.6559 26.3651 53.2376 26.3651C53.815 26.3651 54.3349 26.4972 54.7972 26.7614C55.2617 27.0234 55.6282 27.4048 55.8967 27.9055C56.1673 28.4062 56.3026 29.0135 56.3026 29.7273ZM54.8995 29.7273C54.8995 29.2649 54.8303 28.875 54.6918 28.5575C54.5554 28.2401 54.3626 27.9993 54.1133 27.8352C53.864 27.6712 53.5721 27.5891 53.2376 27.5891C52.9031 27.5891 52.6112 27.6712 52.3619 27.8352C52.1126 27.9993 51.9187 28.2401 51.7802 28.5575C51.6438 28.875 51.5756 29.2649 51.5756 29.7273C51.5756 30.1896 51.6438 30.5795 51.7802 30.897C51.9187 31.2145 52.1126 31.4553 52.3619 31.6193C52.6112 31.7834 52.9031 31.8654 53.2376 31.8654C53.5721 31.8654 53.864 31.7834 54.1133 31.6193C54.3626 31.4553 54.5554 31.2145 54.6918 30.897C54.8303 30.5795 54.8995 30.1896 54.8995 29.7273Z" fill="black"/>
</svg>
