<svg width="30" height="30" viewBox="0 0 30 30" fill="none" xmlns="http://www.w3.org/2000/svg">
<path d="M4.41194 0L8.23279 2.20585V6.61754L4.41194 8.82339L0.591088 6.61754V2.20585L4.41194 0Z" fill="black"/>
<path d="M16.7674 7.05859L20.5883 9.26444V13.6761L16.7674 15.882L12.9466 13.6761V9.26444L16.7674 7.05859Z" fill="black"/>
<path d="M20.2948 0L24.1156 2.20585V6.61754L20.2948 8.82339L16.4739 6.61754V2.20585L20.2948 0Z" fill="black"/>
<path d="M5.29475 14.1172L9.1156 16.323V20.7347L5.29475 22.9406L1.4739 20.7347V16.323L5.29475 14.1172Z" fill="black"/>
<path d="M21.1776 14.1172L24.9984 16.323V20.7347L21.1776 22.9406L17.3567 20.7347V16.323L21.1776 14.1172Z" fill="black"/>
<path d="M17.6463 21.1758L21.4672 23.3816V27.7933L17.6463 29.9992L13.8255 27.7933V23.3816L17.6463 21.1758Z" fill="black"/>
<path d="M8.826 7.05859L12.6469 9.26444V13.6761L8.826 15.882L5.00515 13.6761V9.26444L8.826 7.05859Z" fill="black"/>
<path d="M12.3533 0L16.1742 2.20585V6.61754L12.3533 8.82339L8.53249 6.61754V2.20585L12.3533 0Z" fill="black"/>
<path d="M24.7088 7.05859L28.5297 9.26444V13.6761L24.7088 15.882L20.888 13.6761V9.26444L24.7088 7.05859Z" fill="black"/>
<path d="M13.2362 14.1172L17.057 16.323V20.7347L13.2362 22.9406L9.41531 20.7347V16.323L13.2362 14.1172Z" fill="black"/>
<path d="M9.70881 21.1758L13.5297 23.3816V27.7933L9.70881 29.9992L5.88796 27.7933V23.3816L9.70881 21.1758Z" fill="black"/>
<path d="M25.5877 21.1758L29.4086 23.3816V27.7933L25.5877 29.9992L21.7669 27.7933V23.3816L25.5877 21.1758Z" fill="black"/>
</svg>
