<svg width="120" height="120" viewBox="0 0 120 120" fill="none" xmlns="http://www.w3.org/2000/svg">
<path d="M17.6475 0L32.9306 8.82339V26.4702L17.6475 35.2936L2.36431 26.4702V8.82339L17.6475 0Z" fill="black"/>
<path d="M67.0615 28.2324L82.3447 37.0558V54.7026L67.0615 63.526L51.7784 54.7026V37.0558L67.0615 28.2324Z" fill="black"/>
<path d="M81.1787 0L96.4619 8.82339V26.4702L81.1787 35.2936L65.8956 26.4702V8.82339L81.1787 0Z" fill="black"/>
<path d="M21.1787 56.4688L36.4619 65.2921V82.9389L21.1787 91.7623L5.89556 82.9389V65.2921L21.1787 56.4688Z" fill="black"/>
<path d="M84.7061 56.4688L99.9892 65.2921V82.9389L84.7061 91.7623L69.4229 82.9389V65.2921L84.7061 56.4688Z" fill="black"/>
<path d="M70.585 84.707L85.8681 93.5304V111.177L70.585 120.001L55.3018 111.177V93.5304L70.585 84.707Z" fill="black"/>
<path d="M35.2959 28.2324L50.5791 37.0558V54.7026L35.2959 63.526L20.0127 54.7026V37.0558L35.2959 28.2324Z" fill="black"/>
<path d="M49.4092 0L64.6923 8.82339V26.4702L49.4092 35.2936L34.126 26.4702V8.82339L49.4092 0Z" fill="black"/>
<path d="M98.8272 28.2324L114.11 37.0558V54.7026L98.8272 63.526L83.544 54.7026V37.0558L98.8272 28.2324Z" fill="black"/>
<path d="M52.9443 56.4688L68.2275 65.2921V82.9389L52.9443 91.7623L37.6612 82.9389V65.2921L52.9443 56.4688Z" fill="black"/>
<path d="M38.8272 84.707L54.1103 93.5304V111.177L38.8272 120.001L23.544 111.177V93.5304L38.8272 84.707Z" fill="black"/>
<path d="M102.351 84.707L117.634 93.5304V111.177L102.351 120.001L87.0674 111.177V93.5304L102.351 84.707Z" fill="black"/>
</svg>
