<svg width="220" height="220" viewBox="0 0 220 220" fill="none" xmlns="http://www.w3.org/2000/svg">
<rect width="220" height="220" fill="white"/>
<path d="M67.576 92.6364V129H60.9354L45.1151 106.113H44.8487V129H37.1605V92.6364H43.9077L59.6037 115.506H59.9233V92.6364H67.576ZM73.9281 129V92.6364H98.4309V98.9751H81.6163V107.64H97.1703V113.979H81.6163V122.661H98.502V129H73.9281ZM112.729 129L102.324 92.6364H110.722L116.741 117.903H117.043L123.684 92.6364H130.875L137.498 117.956H137.817L143.837 92.6364H152.235L141.83 129H134.337L127.413 105.225H127.129L120.222 129H112.729ZM175.735 103.094C175.593 101.662 174.983 100.549 173.906 99.7564C172.829 98.9633 171.367 98.5668 169.52 98.5668C168.266 98.5668 167.206 98.7443 166.342 99.0994C165.478 99.4427 164.815 99.9221 164.353 100.538C163.904 101.153 163.679 101.852 163.679 102.633C163.655 103.284 163.791 103.852 164.087 104.337C164.395 104.823 164.815 105.243 165.348 105.598C165.88 105.941 166.496 106.243 167.194 106.504C167.893 106.752 168.638 106.965 169.431 107.143L172.699 107.924C174.285 108.279 175.741 108.753 177.066 109.344C178.392 109.936 179.54 110.664 180.511 111.528C181.482 112.393 182.233 113.411 182.766 114.582C183.31 115.754 183.589 117.098 183.6 118.613C183.589 120.838 183.02 122.768 181.896 124.401C180.783 126.023 179.173 127.284 177.066 128.183C174.971 129.071 172.444 129.515 169.485 129.515C166.549 129.515 163.992 129.065 161.814 128.165C159.648 127.266 157.955 125.934 156.736 124.17C155.529 122.395 154.895 120.199 154.836 117.583H162.276C162.359 118.802 162.708 119.82 163.324 120.637C163.951 121.442 164.785 122.052 165.827 122.466C166.881 122.868 168.07 123.07 169.396 123.07C170.698 123.07 171.828 122.88 172.787 122.501C173.758 122.123 174.51 121.596 175.042 120.921C175.575 120.246 175.841 119.471 175.841 118.595C175.841 117.778 175.599 117.092 175.113 116.536C174.64 115.979 173.941 115.506 173.018 115.115C172.107 114.724 170.988 114.369 169.662 114.05L165.703 113.055C162.637 112.31 160.216 111.144 158.441 109.558C156.665 107.971 155.783 105.835 155.795 103.148C155.783 100.946 156.369 99.0225 157.553 97.3771C158.748 95.7318 160.388 94.4474 162.471 93.5241C164.555 92.6009 166.922 92.1392 169.574 92.1392C172.272 92.1392 174.628 92.6009 176.64 93.5241C178.664 94.4474 180.239 95.7318 181.363 97.3771C182.488 99.0225 183.068 100.928 183.103 103.094H175.735Z" fill="#42B983"/>
</svg>
