<svg width="220" height="220" viewBox="0 0 220 220" fill="none" xmlns="http://www.w3.org/2000/svg">
<rect width="220" height="220" fill="white"/>
<path d="M11.2124 123V97.5455H21.255C23.1856 97.5455 24.8304 97.9142 26.1893 98.6516C27.5482 99.3808 28.5839 100.396 29.2965 101.697C30.0174 102.989 30.3778 104.481 30.3778 106.171C30.3778 107.862 30.0133 109.353 29.2841 110.646C28.5549 111.938 27.4985 112.945 26.1147 113.666C24.7392 114.387 23.0737 114.747 21.1183 114.747H14.7173V110.434H20.2482C21.284 110.434 22.1374 110.256 22.8086 109.9C23.488 109.535 23.9935 109.034 24.3249 108.396C24.6647 107.75 24.8345 107.008 24.8345 106.171C24.8345 105.326 24.6647 104.589 24.3249 103.959C23.9935 103.321 23.488 102.828 22.8086 102.48C22.1291 102.123 21.2674 101.945 20.2234 101.945H16.5941V123H11.2124ZM57.2648 110.273C57.2648 113.049 56.7387 115.41 55.6863 117.357C54.6423 119.304 53.2171 120.792 51.4108 121.819C49.6127 122.838 47.5909 123.348 45.3454 123.348C43.0834 123.348 41.0533 122.834 39.2552 121.807C37.4572 120.779 36.0361 119.292 34.9921 117.345C33.9481 115.398 33.426 113.04 33.426 110.273C33.426 107.497 33.9481 105.135 34.9921 103.188C36.0361 101.241 37.4572 99.7578 39.2552 98.7386C41.0533 97.7112 43.0834 97.1974 45.3454 97.1974C47.5909 97.1974 49.6127 97.7112 51.4108 98.7386C53.2171 99.7578 54.6423 101.241 55.6863 103.188C56.7387 105.135 57.2648 107.497 57.2648 110.273ZM51.8085 110.273C51.8085 108.475 51.5392 106.958 51.0006 105.724C50.4703 104.489 49.7204 103.553 48.751 102.915C47.7815 102.277 46.6463 101.958 45.3454 101.958C44.0445 101.958 42.9094 102.277 41.9399 102.915C40.9704 103.553 40.2164 104.489 39.6778 105.724C39.1475 106.958 38.8824 108.475 38.8824 110.273C38.8824 112.071 39.1475 113.587 39.6778 114.822C40.2164 116.056 40.9704 116.993 41.9399 117.631C42.9094 118.269 44.0445 118.588 45.3454 118.588C46.6463 118.588 47.7815 118.269 48.751 117.631C49.7204 116.993 50.4703 116.056 51.0006 114.822C51.5392 113.587 51.8085 112.071 51.8085 110.273ZM61.2514 123V97.5455H71.294C73.2164 97.5455 74.857 97.8893 76.2159 98.5771C77.5831 99.2565 78.623 100.222 79.3356 101.473C80.0565 102.716 80.4169 104.178 80.4169 105.86C80.4169 107.551 80.0523 109.005 79.3232 110.223C78.594 111.433 77.5375 112.361 76.1538 113.007C74.7783 113.653 73.1128 113.977 71.1573 113.977H64.4332V109.651H70.2873C71.3147 109.651 72.1682 109.51 72.8477 109.229C73.5271 108.947 74.0326 108.524 74.364 107.961C74.7037 107.397 74.8736 106.697 74.8736 105.86C74.8736 105.015 74.7037 104.303 74.364 103.723C74.0326 103.143 73.523 102.703 72.8352 102.405C72.1558 102.099 71.2982 101.945 70.2624 101.945H66.6332V123H61.2514ZM74.9979 111.416L81.3242 123H75.3832L69.1935 111.416H74.9979ZM83.2507 101.983V97.5455H104.156V101.983H96.3633V123H91.0437V101.983H83.2507ZM107.599 123V97.5455H124.453V101.983H112.981V108.048H123.334V112.485H112.981V123H107.599ZM151.464 110.273C151.464 113.049 150.938 115.41 149.886 117.357C148.842 119.304 147.416 120.792 145.61 121.819C143.812 122.838 141.79 123.348 139.545 123.348C137.283 123.348 135.253 122.834 133.454 121.807C131.656 120.779 130.235 119.292 129.191 117.345C128.147 115.398 127.625 113.04 127.625 110.273C127.625 107.497 128.147 105.135 129.191 103.188C130.235 101.241 131.656 99.7578 133.454 98.7386C135.253 97.7112 137.283 97.1974 139.545 97.1974C141.79 97.1974 143.812 97.7112 145.61 98.7386C147.416 99.7578 148.842 101.241 149.886 103.188C150.938 105.135 151.464 107.497 151.464 110.273ZM146.008 110.273C146.008 108.475 145.738 106.958 145.2 105.724C144.67 104.489 143.92 103.553 142.95 102.915C141.981 102.277 140.846 101.958 139.545 101.958C138.244 101.958 137.109 102.277 136.139 102.915C135.17 103.553 134.416 104.489 133.877 105.724C133.347 106.958 133.082 108.475 133.082 110.273C133.082 112.071 133.347 113.587 133.877 114.822C134.416 116.056 135.17 116.993 136.139 117.631C137.109 118.269 138.244 118.588 139.545 118.588C140.846 118.588 141.981 118.269 142.95 117.631C143.92 116.993 144.67 116.056 145.2 114.822C145.738 113.587 146.008 112.071 146.008 110.273ZM155.451 123V97.5455H160.832V118.563H171.745V123H155.451ZM180.691 97.5455V123H175.309V97.5455H180.691ZM208.51 110.273C208.51 113.049 207.984 115.41 206.931 117.357C205.887 119.304 204.462 120.792 202.656 121.819C200.858 122.838 198.836 123.348 196.591 123.348C194.328 123.348 192.298 122.834 190.5 121.807C188.702 120.779 187.281 119.292 186.237 117.345C185.193 115.398 184.671 113.04 184.671 110.273C184.671 107.497 185.193 105.135 186.237 103.188C187.281 101.241 188.702 99.7578 190.5 98.7386C192.298 97.7112 194.328 97.1974 196.591 97.1974C198.836 97.1974 200.858 97.7112 202.656 98.7386C204.462 99.7578 205.887 101.241 206.931 103.188C207.984 105.135 208.51 107.497 208.51 110.273ZM203.054 110.273C203.054 108.475 202.784 106.958 202.246 105.724C201.715 104.489 200.966 103.553 199.996 102.915C199.027 102.277 197.891 101.958 196.591 101.958C195.29 101.958 194.154 102.277 193.185 102.915C192.216 103.553 191.462 104.489 190.923 105.724C190.393 106.958 190.127 108.475 190.127 110.273C190.127 112.071 190.393 113.587 190.923 114.822C191.462 116.056 192.216 116.993 193.185 117.631C194.154 118.269 195.29 118.588 196.591 118.588C197.891 118.588 199.027 118.269 199.996 117.631C200.966 116.993 201.715 116.056 202.246 114.822C202.784 113.587 203.054 112.071 203.054 110.273Z" fill="black"/>
</svg>
